<?xml version="1.0" encoding="UTF-8"?><svg id="Layer_1" xmlns="http://www.w3.org/2000/svg" viewBox="0 0 311 74"><polygon points="237.06 72.5 182.48 67.99 140.5 72.49 57.08 64 27.25 64 1.81 30.41 14.84 9 44.57 9 128.52 1.5 189.92 5 287.74 5 309.3 34.22 297.29 64.48 284.08 72.5 237.06 72.5" style="fill:#fff;"/><path d="M128.55,3.01l61.28,3.49h.09s.09,0,.09,0h96.99l20.61,27.94-11.51,29.02-12.42,7.54h-46.54l-54.38-4.49-.28-.02-.28.03-41.69,4.47-83.19-8.47-.15-.02h-29.16L3.62,30.32,15.69,10.5h29.08s83.78-7.49,83.78-7.49M128.5,0L44.5,7.5H14L0,30.5l26.5,35h30.5l83.5,8.5,42-4.5,54.5,4.5h47.5l14-8.5,12.5-31.5-22.5-30.5h-98.5l-61.5-3.5h0Z"/></svg>