<?xml version="1.0" encoding="UTF-8"?><svg id="Layer_1" xmlns="http://www.w3.org/2000/svg" viewBox="0 0 803 606"><polygon points="229 587.5 57.93 596.8 1.54 538.49 12.39 389.16 1.53 265.26 52.3 153.77 115.93 69.27 286.27 9.5 771.65 1.52 801.49 285 785.58 436.17 700.13 496.78 538.58 604.47 229 587.5" style="fill:#fff;"/><path d="M770.3,3.04l29.68,281.96-15.83,150.34-84.86,60.19-161.13,107.42-309-16.95h-.16s-.16,0-.16,0l-170.31,9.26-55.44-57.34,10.78-148.54.02-.24-.02-.24-10.81-123.39,50.54-110.98,63.26-84.01L286.53,10.99l483.77-7.95M773,0l-487,8-171,60-64,85L0,265l10.88,124.17L0,539.05l57.33,59.29,171.67-9.34,310,17,162-108,86-61,16-152L773,0h0Z" style="fill:#222;"/></svg>