<svg viewBox="0 0 145 58" fill="none" xmlns="http://www.w3.org/2000/svg" width="100%" height="100%" style="width:100%;height:100%;display:block;">
<g clip-path="url(#clip0_6_657)">
<path d="M0.0112832 42.2082H1.3427V30.1689H0.0112832V25.7756H12.2761C14.5779 25.7756 16.3267 26.25 17.5453 27.1987C18.7526 28.1473 19.3619 29.672 19.3619 31.7953C19.3619 33.9185 19.125 34.0201 18.6398 34.9011C18.1546 35.7707 17.4776 36.3805 16.5863 36.7194L16.6088 36.9904C18.3239 37.2615 19.1701 38.3118 19.1701 40.1527V42.2082H20.4225V46.6015H11.9489V40.3108C11.9489 39.6106 11.8473 39.0911 11.6442 38.7297C11.4411 38.3683 11.1139 38.1311 10.6852 38.0069C10.2451 37.8826 9.62454 37.8149 8.82344 37.8149V42.2082H10.5836V46.6015H0V42.2082H0.0112832ZM10.2677 34.5622C10.7867 34.5622 11.1703 34.4267 11.4299 34.1444C11.6894 33.862 11.8135 33.4329 11.8135 32.8456V31.8856C11.8135 31.2983 11.6781 30.8692 11.4299 30.5868C11.1703 30.3045 10.7867 30.1689 10.2677 30.1689H8.82344V34.5622H10.2677Z" fill="#222222"/>
<path d="M38.9268 42.2082V46.6015H31.6041V44.5121C30.3178 46.1497 28.7156 46.9742 26.7974 46.9742C24.8793 46.9742 24.2136 46.5111 23.4689 45.585C22.7242 44.6589 22.3631 43.3827 22.3631 41.7564V36.1095H21.1897V31.7162H28.5125V40.4915C28.5125 41.0788 28.6366 41.5079 28.8961 41.7903C29.1556 42.0726 29.5392 42.2082 30.0583 42.2082C30.5773 42.2082 30.9609 42.0726 31.2204 41.7903C31.4799 41.5079 31.6041 41.0788 31.6041 40.4915V36.0982H30.1598V31.7049H37.7534V42.1969H38.9268V42.2082Z" fill="#222222"/>
<path d="M39.6716 45.9012V41.9371H44.0044V42.2081C44.0044 43.0664 44.546 43.4956 45.6404 43.4956C46.7349 43.4956 47.0847 43.1681 47.0847 42.5018C47.0847 41.8354 46.9493 41.8806 46.6672 41.6999C46.3851 41.5192 45.8999 41.3724 45.2117 41.2481L43.8803 41.011C41.082 40.514 39.6829 38.9216 39.6829 36.245C39.6829 33.5683 40.2696 33.4893 41.4431 32.6309C42.6165 31.7726 44.2075 31.3434 46.2046 31.3434C48.2017 31.3434 50.3117 31.7161 51.8462 32.4728V36.1885H47.7842V35.9174C47.7842 35.556 47.6601 35.285 47.4232 35.1043C47.1862 34.9236 46.8364 34.8219 46.3625 34.8219C45.4712 34.8219 45.0311 35.1043 45.0311 35.6803C45.0311 36.2563 45.1552 36.2111 45.4035 36.3805C45.6517 36.5386 46.103 36.6967 46.7687 36.8323L48.292 37.1259C49.8716 37.4308 51.0112 37.9955 51.6882 38.8087C52.3652 39.6331 52.7037 40.6834 52.7037 41.9709C52.7037 43.2584 52.1395 44.8396 51.0112 45.6866C49.8829 46.5337 48.2694 46.9741 46.182 46.9741C44.0946 46.9741 41.7703 46.6127 39.6829 45.9012H39.6716Z" fill="#222222"/>
<path d="M55.8855 45.5963C54.9264 44.6815 54.4525 43.1342 54.4525 40.9545V36.1095H53.2791V31.7162C53.956 31.7162 54.4638 31.5468 54.8023 31.1967C55.1408 30.8465 55.31 30.3722 55.31 29.7623V28.5539H60.9742V31.7162H64.5848V36.1095H60.9742V40.5028C60.9742 41.0901 61.0983 41.5192 61.3578 41.8016C61.6173 42.0839 62.0009 42.2194 62.52 42.2194C63.039 42.2194 63.9304 42.1404 64.7427 41.9823V46.1836C64.2463 46.3756 63.5693 46.5676 62.7231 46.737C61.8768 46.9064 61.0193 46.9854 60.1392 46.9854C58.2549 46.9854 56.8333 46.5224 55.8742 45.6076L55.8855 45.5963Z" fill="#222222"/>
<path d="M88.5052 25.7869H97.0579V30.1802H95.986L92.003 46.6015H84.0145L81.5774 35.0479H81.3066L78.7453 46.6015H70.7568L66.5031 30.1802H65.4312V25.7869H75.3152V30.1802H74.2997L75.3378 37.0017H75.6086L78.1473 25.7982H85.8424L88.1893 37.0017H88.4601L89.4981 30.1802H88.4827V25.7869H88.5052Z" fill="#222222"/>
<path d="M98.0168 44.9864C96.5952 43.6537 95.873 41.7225 95.873 39.1701C95.873 36.6177 96.5839 34.6751 98.0168 33.3537C99.4385 32.0211 101.424 31.366 103.952 31.366C106.479 31.366 108.273 32.0211 109.39 33.3312C110.507 34.6412 111.06 36.2676 111.06 38.2101V40.1413H102.395V40.2995C102.395 40.9545 102.587 41.4401 102.981 41.7564C103.376 42.0726 104.019 42.2194 104.933 42.2194C105.847 42.2194 107.055 42.1403 108.036 41.9822C109.018 41.8241 109.875 41.6208 110.598 41.3611V45.6414C109.977 45.9803 109.063 46.2852 107.856 46.5675C106.648 46.8499 105.351 46.9854 103.941 46.9854C101.413 46.9854 99.4272 46.3191 98.0056 44.9977L98.0168 44.9864ZM105.498 37.1824V36.8661C105.498 36.2563 105.362 35.8271 105.114 35.556C104.854 35.285 104.471 35.1608 103.952 35.1608C103.433 35.1608 103.049 35.2963 102.79 35.5786C102.53 35.861 102.406 36.2901 102.406 36.8774V37.1936H105.509L105.498 37.1824Z" fill="#222222"/>
<path d="M113.892 44.9864C112.471 43.6537 111.749 41.7225 111.749 39.1701C111.749 36.6177 112.459 34.6751 113.892 33.3537C115.314 32.0211 117.3 31.366 119.827 31.366C122.355 31.366 124.149 32.0211 125.266 33.3312C126.383 34.6412 126.936 36.2676 126.936 38.2101V40.1413H118.27V40.2995C118.27 40.9545 118.462 41.4401 118.857 41.7564C119.252 42.0726 119.895 42.2194 120.809 42.2194C121.723 42.2194 122.93 42.1403 123.912 41.9822C124.893 41.8241 125.751 41.6208 126.473 41.3611V45.6414C125.852 45.9803 124.939 46.2852 123.731 46.5675C122.524 46.8499 121.226 46.9854 119.816 46.9854C117.289 46.9854 115.303 46.3191 113.881 44.9977L113.892 44.9864ZM121.373 37.1824V36.8661C121.373 36.2563 121.238 35.8271 120.989 35.556C120.73 35.285 120.346 35.1608 119.827 35.1608C119.308 35.1608 118.925 35.2963 118.665 35.5786C118.406 35.861 118.281 36.2901 118.281 36.8774V37.1936H121.384L121.373 37.1824Z" fill="#222222"/>
<path d="M143.849 42.2082H145V46.6015H138.456L135.703 41.4628H135.06V46.6015H127.737V42.2082H128.91V30.1689H127.737V25.7756H135.06V36.6403H135.703L139.02 31.7162H144.662V36.1095H143.567L141.299 38.6506L143.86 42.2082H143.849Z" fill="#222222"/>
<path d="M72.3929 14.2898C67.135 14.2898 62.3622 14.9222 58.8306 15.9613V24.7931C62.3622 25.8321 67.1463 26.4646 72.3929 26.4646C77.6396 26.4646 83.7889 25.6288 87.4108 24.33V16.4469C83.7889 15.1368 78.4069 14.3124 72.3929 14.3124" fill="#A52B00"/>
<path d="M92.8267 21.4614L92.2061 20.1852V20.0383C92.2061 18.5814 90.7055 17.2488 88.1667 16.1758V23.9008C89.3515 23.4039 90.3105 22.8392 90.9875 22.2406C90.7844 23.0538 90.0962 24.7027 89.5433 25.8547C88.6406 27.5149 88.3134 28.9492 88.3586 29.0282C88.3811 29.0734 88.6971 28.5991 89.1484 27.8198C90.209 26.3064 92.2174 23.4152 92.6123 22.6811C93.0636 21.8453 92.8154 21.4614 92.8154 21.4614" fill="#A52B00"/>
<path d="M52.9632 20.1174C52.9632 20.3997 53.0196 20.6708 53.1324 20.9418L52.7601 21.5969C52.7601 21.5969 52.4667 21.9809 52.9857 22.794C53.4484 23.5055 55.7501 26.3064 56.9574 27.7746C57.4764 28.5313 57.8375 28.9943 57.8601 28.9492C57.9052 28.8814 57.5329 27.4697 56.5061 25.8547C56.0209 24.985 55.4455 23.8444 55.0957 22.9973C56.0661 23.6072 57.3298 24.1719 58.8304 24.6462V15.5773C55.2085 16.7292 52.9632 18.333 52.9632 20.1174Z" fill="#A52B00"/>
<path d="M96.4035 21.4501L92.3528 18.4572C92.3189 18.3217 92.2738 18.1861 92.24 18.0619L93.5714 16.1307C93.7068 15.9387 93.7406 15.6789 93.6504 15.453C93.5601 15.2272 93.3683 15.069 93.1426 15.0352L90.8973 14.6512C90.807 14.4705 90.7167 14.3011 90.6265 14.1204L91.5743 11.952C91.6758 11.7261 91.6532 11.4776 91.5178 11.2743C91.3937 11.071 91.1681 10.9581 90.9424 10.9581L88.6632 11.0372C88.5504 10.879 88.4263 10.7322 88.3021 10.5741L88.8212 8.24757C88.8776 8.0104 88.8099 7.76194 88.6406 7.59253C88.4714 7.42312 88.2457 7.35536 88.0201 7.40053L85.7973 7.95393C85.6506 7.8297 85.5039 7.70547 85.3572 7.58124L85.4362 5.18694C85.4362 4.94977 85.3347 4.7126 85.1428 4.57708C84.951 4.44155 84.7028 4.41896 84.4884 4.52061L82.4123 5.51446C82.2431 5.42411 82.0738 5.32247 81.9046 5.23212L81.5435 2.87171C81.5097 2.63454 81.3517 2.43125 81.1373 2.3409C80.9229 2.25054 80.6747 2.27313 80.4942 2.41995L78.6437 3.80909C78.4632 3.75262 78.2827 3.69616 78.0909 3.63969L77.2898 1.40351C77.2108 1.17763 77.019 1.00822 76.7933 0.963047C76.5676 0.917872 76.3307 0.996929 76.1727 1.16634L74.6157 2.91688C74.4238 2.89429 74.2433 2.87171 74.0515 2.86041L72.8442 0.827521C72.7201 0.624232 72.5057 0.5 72.28 0.5C72.0544 0.5 71.8287 0.624232 71.7159 0.827521L70.5086 2.86041C70.3168 2.87171 70.1362 2.89429 69.9444 2.91688L68.3873 1.16634C68.2294 0.985635 67.9924 0.906578 67.7668 0.963047C67.5411 1.00822 67.3493 1.17763 67.2703 1.40351L66.4692 3.63969C66.2887 3.69616 66.0969 3.75262 65.9163 3.80909L64.0659 2.41995C63.8741 2.27313 63.6371 2.25054 63.4227 2.3409C63.2084 2.43125 63.0617 2.63454 63.0166 2.87171L62.6555 5.23212C62.4862 5.32247 62.317 5.42411 62.1478 5.51446L60.0717 4.52061C59.8573 4.41896 59.6203 4.44155 59.4172 4.57708C59.2254 4.7126 59.1126 4.93848 59.1239 5.18694L59.2028 7.58124C59.0562 7.70547 58.9095 7.8297 58.7628 7.95393L56.54 7.41183C56.3144 7.35536 56.0774 7.42312 55.9194 7.60382C55.7502 7.77323 55.6938 8.0217 55.7389 8.25887L56.2579 10.5854C56.1338 10.7322 56.021 10.8903 55.8969 11.0484L53.6177 10.9694C53.392 10.9694 53.1664 11.0823 53.0422 11.2856C52.9181 11.4889 52.8956 11.7487 52.9858 11.9632L53.9336 14.1317C53.8433 14.3011 53.7531 14.4818 53.6628 14.6625L51.4175 15.0465C51.1918 15.0803 51 15.2498 50.9097 15.4643C50.8195 15.6902 50.8533 15.9387 50.9887 16.142L52.3201 18.0732C52.3088 18.1071 52.2975 18.141 52.2863 18.1749L48.529 22.1842C48.529 22.1842 47.9535 22.6359 48.7885 23.7088C49.5332 24.6462 53.3243 28.3732 55.3327 30.327C56.179 31.3209 56.7657 31.9307 56.8221 31.8743C56.9236 31.7839 56.4159 29.9882 54.746 27.8763C53.4597 25.9789 51.7898 23.0538 52.1847 22.7263C52.1847 22.7263 52.636 22.1616 53.5274 21.755C53.4936 21.7324 53.5613 21.7776 53.5274 21.755C53.5274 21.755 72.3929 30.4851 89.8818 21.9018C91.8789 21.5404 93.0862 22.6133 93.0862 22.6133C93.5037 22.8505 92.4205 25.8547 91.5291 27.8424C90.3218 30.1011 90.1413 31.863 90.2428 31.9195C90.3105 31.9533 90.7506 31.287 91.3712 30.2141C92.917 28.0457 95.8506 23.9234 96.3809 22.9183C96.9902 21.7776 96.3809 21.4614 96.3809 21.4614" fill="#F74C00"/>
<path d="M66.0178 27.0631C65.9501 26.9953 65.905 26.9615 65.905 26.9615L72.0881 26.4532C67.0446 19.7786 63.0052 25.098 62.5764 25.6853V27.0518H66.0178V27.0631Z" fill="#222222"/>
<path d="M78.8807 26.984C78.9484 26.9163 78.9935 26.8824 78.9935 26.8824L73.0586 26.4419C78.1022 19.4962 81.8933 25.0076 82.3221 25.6062V26.9727H78.8807V26.984Z" fill="#222222"/>
<path d="M88.3811 20.3658C88.3811 20.3658 87.7041 23.0651 83.5068 25.8998L82.3333 26.1709C82.3333 26.1709 78.5196 19.1913 73.1262 27.0518C73.1262 27.0518 74.8074 26.0692 79.3207 27.2664C79.3207 27.2664 77.2446 30.4512 73.0698 30.3496C73.0698 30.3496 77.0753 35.1721 83.1683 28.2038C83.1683 28.2038 89.611 25.7078 90.13 20.3433H88.3924L88.3811 20.3658Z" fill="#F74C00"/>
<path d="M75.868 16.8987C75.868 16.8987 77.7523 14.8319 79.6366 16.8987C79.6366 16.8987 81.1147 19.6657 79.6366 21.0435C79.6366 21.0435 77.2107 22.9748 75.868 21.0435C75.868 21.0435 74.2545 19.5188 75.868 16.8987Z" fill="#222222"/>
<path d="M78.0458 17.6779C78.0458 18.4798 77.5719 19.1348 76.9852 19.1348C76.3984 19.1348 75.9246 18.4798 75.9246 17.6779C75.9246 16.8761 76.3984 16.221 76.9852 16.221C77.5719 16.221 78.0458 16.8761 78.0458 17.6779Z" fill="white"/>
<path d="M67.4508 16.334C67.4508 16.334 70.6891 14.8997 71.5692 18.1071C71.5692 18.1071 72.4944 21.8454 68.9176 22.06C68.9176 22.06 64.3479 21.179 67.4621 16.3453" fill="#222222"/>
<path d="M69.0757 17.7231C69.0757 18.5588 68.5905 19.2252 67.9812 19.2252C67.3719 19.2252 66.8867 18.5475 66.8867 17.7231C66.8867 16.8986 67.3719 16.221 67.9812 16.221C68.5905 16.221 69.0757 16.8986 69.0757 17.7231Z" fill="white"/>
<path d="M65.6341 27.56C69.617 27.0518 71.9188 27.0066 71.9188 27.0066C66.5932 19.9593 62.2717 26.3403 62.2717 26.3403C61.1885 25.9563 60.0828 24.4429 59.2591 23.0538L55.9531 22.0712C59.7556 28.5652 62.5989 28.6555 62.5989 28.6555C68.5 36.2563 71.2982 30.1463 71.2982 30.1463C67.981 29.7623 65.6341 27.56 65.6341 27.56Z" fill="#F74C00"/>
<path d="M53.9449 55.7382C53.6629 55.7382 53.4146 55.6704 53.2115 55.5462C52.9972 55.4219 52.8279 55.2525 52.6812 55.0266C52.5458 54.8121 52.4556 54.5523 52.4217 54.2813L52.5571 54.1005L52.4781 55.6478H51.2031V49.5604H52.6587V52.7114L52.5233 52.5081C52.6022 52.158 52.7602 51.8644 53.0084 51.6272C53.2567 51.4013 53.5839 51.2771 54.0014 51.2771C54.4188 51.2771 54.6219 51.3674 54.8814 51.5368C55.141 51.7175 55.344 51.966 55.4907 52.3048C55.6374 52.6436 55.7051 53.0389 55.7051 53.5133C55.7051 53.9876 55.6261 54.3716 55.4794 54.6991C55.3328 55.0266 55.1297 55.2864 54.8589 55.4558C54.5994 55.6252 54.2947 55.7156 53.9337 55.7156L53.9449 55.7382ZM53.4372 54.6652C53.6854 54.6652 53.8885 54.5749 54.0239 54.3829C54.1706 54.2022 54.2383 53.9086 54.2383 53.502C54.2383 53.0954 54.1706 52.8131 54.0239 52.6211C53.8772 52.4404 53.6854 52.3387 53.4372 52.3387C53.189 52.3387 53.1325 52.3839 53.0197 52.4855C52.9069 52.5872 52.8166 52.7114 52.7489 52.8808C52.6812 53.0502 52.6587 53.2648 52.6587 53.502C52.6587 53.7391 52.6925 53.9537 52.7489 54.1231C52.8166 54.2925 52.9069 54.4281 53.0197 54.5071C53.1438 54.5975 53.2792 54.6427 53.4372 54.6427V54.6652Z" fill="#222222"/>
<path d="M60.6132 51.3787L59.0561 55.6591C58.8981 56.1108 58.7176 56.4722 58.5371 56.732C58.3453 57.0031 58.1309 57.1951 57.8714 57.3193C57.6119 57.4435 57.3072 57.5 56.9462 57.5C56.5851 57.5 56.4835 57.4774 56.2917 57.4209C56.0886 57.3758 55.9194 57.2967 55.7727 57.2063L56.0661 56.2238C56.1676 56.3028 56.2804 56.348 56.3933 56.3819C56.5061 56.4158 56.6528 56.4271 56.8333 56.4271C57.0139 56.4271 57.138 56.3932 57.2395 56.3367C57.3411 56.2802 57.4313 56.1673 57.4877 56.0092L57.6006 55.7494L57.1041 54.5862L55.8178 51.3787H57.42L58.0745 53.8182L58.2776 54.7217L58.5145 53.7843L59.1689 51.3787H60.6132Z" fill="#222222"/>
<path d="M66.1759 50.0009C66.8529 50.0009 67.3719 50.159 67.7442 50.4753C68.1166 50.7915 68.3084 51.2094 68.3084 51.7402C68.3084 52.271 68.1279 52.7566 67.7555 53.0615C67.3832 53.3665 66.8641 53.5133 66.1872 53.5133L66.0518 53.5924H64.9347V55.6478H63.4905V50.0009H66.1872H66.1759ZM65.9728 52.542C66.2549 52.542 66.4692 52.4856 66.6159 52.3726C66.7626 52.2597 66.8303 52.079 66.8303 51.8305C66.8303 51.5821 66.7626 51.4014 66.6159 51.2884C66.4692 51.1755 66.2549 51.119 65.9728 51.119H64.9347V52.542H65.9728ZM66.8416 52.8583L68.6469 55.6591H67.0221L65.5779 53.1858L66.8416 52.8583Z" fill="#222222"/>
<path d="M70.6778 55.7381C70.3844 55.7381 70.1362 55.693 69.9105 55.5913C69.6962 55.4897 69.5156 55.3316 69.3915 55.1057C69.2674 54.8798 69.1997 54.5975 69.1997 54.2361V51.3787H70.6552V53.8972C70.6552 54.1683 70.7117 54.3603 70.8132 54.4732C70.926 54.5862 71.0727 54.6313 71.2758 54.6313C71.4789 54.6313 71.4789 54.6088 71.5692 54.5749C71.6594 54.541 71.7384 54.4845 71.8061 54.4055C71.8738 54.3264 71.9302 54.2248 71.9641 54.1118C71.9979 53.9876 72.0205 53.8408 72.0205 53.6827V51.39H73.476V55.6704H72.1785L72.1333 54.8685C71.9979 55.1735 71.8061 55.3993 71.5579 55.5349C71.3097 55.6817 71.0163 55.7494 70.6665 55.7494L70.6778 55.7381Z" fill="#222222"/>
<path d="M76.3194 55.7382C75.8907 55.7382 75.4958 55.6704 75.1234 55.5236C74.7511 55.3881 74.4464 55.1848 74.2095 54.925L74.8977 54.1231C75.0444 54.3038 75.2362 54.462 75.4732 54.5862C75.7101 54.7104 75.9696 54.7669 76.263 54.7669C76.5564 54.7669 76.5902 54.7443 76.7031 54.6991C76.8159 54.654 76.8723 54.5636 76.8723 54.4507C76.8723 54.3377 76.8384 54.3038 76.782 54.2587C76.7256 54.2135 76.6128 54.1683 76.4435 54.1231L75.8568 54.0102C75.3152 53.8973 74.9316 53.7392 74.7059 53.5246C74.4803 53.31 74.3674 53.0276 74.3674 52.6775C74.3674 52.3274 74.4351 52.2258 74.5818 52.0112C74.7285 51.7966 74.9542 51.6272 75.2475 51.4917C75.5409 51.3562 75.9245 51.2884 76.3758 51.2884C76.8272 51.2884 77.1882 51.3562 77.5154 51.4804C77.8427 51.6046 78.1134 51.7853 78.3053 52.0225L77.6057 52.8131C77.4703 52.6324 77.2898 52.4968 77.0754 52.4065C76.861 52.3161 76.6354 52.2597 76.421 52.2597C76.2066 52.2597 76.1727 52.271 76.0825 52.2935C75.9922 52.3161 75.9245 52.3613 75.8681 52.4065C75.8117 52.4517 75.8004 52.5081 75.8004 52.5759C75.8004 52.6437 75.8342 52.7114 75.9019 52.7679C75.9696 52.8244 76.105 52.8695 76.2969 52.9147L77.0754 53.0728C77.5154 53.1519 77.8314 53.2987 78.0232 53.5133C78.215 53.7279 78.3165 53.9763 78.3165 54.2813C78.3165 54.5862 78.2376 54.8008 78.0909 55.0154C77.9442 55.2412 77.7185 55.4219 77.4252 55.5462C77.1318 55.6704 76.7595 55.7382 76.3081 55.7382H76.3194Z" fill="#222222"/>
<path d="M82.1414 51.3788V52.4178H78.6775V51.3788H82.1414ZM80.8664 50.0122V54.1232C80.8664 54.3265 80.9116 54.4733 81.0131 54.5636C81.1147 54.654 81.2501 54.6992 81.4306 54.6992C81.6111 54.6992 81.6901 54.6879 81.7804 54.654C81.8819 54.6201 81.9722 54.5749 82.0512 54.5184L82.2091 55.4107C82.0624 55.5123 81.8819 55.5914 81.6675 55.6478C81.4531 55.7043 81.2275 55.7382 81.0018 55.7382C80.6746 55.7382 80.3925 55.693 80.1556 55.6027C79.9186 55.5123 79.7381 55.3655 79.614 55.1622C79.4899 54.9589 79.4222 54.6992 79.4109 54.3716V50.4188L80.8664 50.0122Z" fill="#222222"/>
<path d="M87.9973 50.0009V55.6478H86.3613L84.6124 52.5985L84.1836 51.7628L84.2175 52.8018V55.6478H82.9199V50.0009H84.556L86.3049 53.0503L86.7336 53.886L86.6998 52.847V50.0009H87.9973Z" fill="#222222"/>
<path d="M90.7166 54.5072H93.5486V55.6478H89.2498V50.0009H90.7166V54.5072Z" fill="#222222"/>
<path d="M48.337 52.7792H0.0112305V54.2587H48.337V52.7792Z" fill="#E74310"/>
<path d="M144.673 52.7792H96.3469V54.2587H144.673V52.7792Z" fill="#729ECB"/>
<path d="M52.6812 51.7289H51.2031V52.9147H52.6812V51.7289Z" fill="#222222"/>
</g>
<defs>
<clipPath id="clip0_6_657">
<rect width="145" height="57" fill="white" transform="translate(0 0.5)"/>
</clipPath>
</defs>
</svg>
